<?xml version="1.0" standalone="no"?>
<!DOCTYPE svg PUBLIC "-//W3C//DTD SVG 20010904//EN"
 "http://www.w3.org/TR/2001/REC-SVG-20010904/DTD/svg10.dtd">
<svg version="1.0" xmlns="http://www.w3.org/2000/svg"
 width="700.000000pt" height="700.000000pt" viewBox="0 0 700.000000 700.000000"
 preserveAspectRatio="xMidYMid meet">
<metadata>
Created by potrace 1.11, written by Peter Selinger 2001-2013
</metadata>
<g transform="translate(0.000000,700.000000) scale(0.100000,-0.100000)"
fill="#000000" stroke="none">
<path d="M6001 6719 c-389 -43 -817 -232 -1165 -514 l-101 -81 -89 38 c-608
263 -1306 307 -1945 123 -181 -52 -299 -98 -487 -190 -299 -147 -549 -330
-789 -576 -225 -230 -381 -451 -523 -739 l-87 -176 -115 -56 c-205 -100 -375
-228 -409 -308 -24 -55 -26 -87 -10 -145 9 -32 43 -73 169 -200 l158 -160 -5
-140 c-21 -546 130 -1118 421 -1599 l78 -128 -47 -41 c-157 -135 -342 -513
-414 -847 -11 -52 -25 -146 -32 -208 -18 -174 -10 -181 168 -162 406 43 820
214 1027 423 57 58 72 68 85 59 9 -6 68 -43 132 -82 273 -165 584 -285 909
-350 217 -43 322 -53 577 -55 l233 -1 157 -156 c126 -124 166 -158 198 -167
103 -28 171 1 261 113 85 105 168 240 213 344 l36 82 100 45 c523 236 989 654
1287 1157 225 381 360 804 398 1253 38 453 -45 949 -229 1374 l-40 92 86 107
c307 379 480 787 517 1222 15 175 -50 355 -173 478 -142 142 -318 197 -550
171z m285 -129 c78 -27 144 -71 203 -136 62 -68 97 -139 117 -239 14 -66 15
-93 5 -184 -42 -370 -181 -705 -435 -1046 -77 -104 -301 -333 -1702 -1735
l-1614 -1615 -71 70 c-39 39 -134 136 -211 217 l-140 148 621 617 c663 661
656 653 774 873 70 130 167 356 167 389 0 38 -22 55 -63 48 -83 -13 -442 -190
-577 -285 -38 -26 -320 -299 -680 -659 l-616 -613 -219 214 -220 215 1580
1579 c1065 1064 1614 1606 1685 1662 349 278 707 441 1081 494 125 18 236 13
315 -14z m-2421 -325 c225 -30 435 -84 648 -167 70 -27 127 -53 127 -56 0 -4
-113 -120 -251 -257 -139 -138 -248 -241 -244 -230 4 11 16 56 27 100 35 137
12 248 -71 338 -64 70 -125 92 -246 92 -90 -1 -109 -5 -190 -36 -49 -19 -128
-57 -174 -84 -197 -118 -276 -189 -862 -772 -494 -492 -569 -563 -590 -559
-57 13 -348 46 -492 56 -173 11 -371 1 -502 -26 -42 -9 -79 -14 -81 -11 -3 3
22 57 55 121 447 860 1271 1414 2241 1506 133 12 462 4 605 -15z m123 -319
c49 -33 92 -112 92 -167 0 -136 -94 -330 -260 -539 -38 -47 -79 -95 -92 -107
l-24 -23 -249 251 -250 252 45 39 c105 93 262 202 365 253 130 65 166 75 261
72 60 -2 78 -7 112 -31z m-603 -666 l250 -251 -166 -163 c-176 -174 -212 -199
-359 -245 -175 -55 -457 -67 -735 -31 -82 11 -154 20 -160 20 -10 0 905 920
915 920 3 0 118 -113 255 -250z m2725 -798 c174 -457 222 -957 139 -1447 -146
-869 -703 -1625 -1488 -2020 -58 -30 -107 -52 -109 -51 -1 2 4 32 12 67 49
211 43 528 -18 934 l-15 100 548 550 c347 348 579 589 632 656 270 343 346
620 216 791 -67 87 -185 136 -299 124 -55 -7 -160 -36 -203 -58 -11 -6 99 110
245 256 225 226 267 264 277 251 6 -9 34 -78 63 -153z m-4420 87 c52 -6 244
-31 425 -57 322 -45 336 -46 580 -46 196 0 265 3 320 16 38 9 71 16 72 14 1
-1 -344 -348 -767 -771 l-770 -770 -97 96 c-451 442 -1047 1039 -1059 1061
-26 50 -18 78 38 130 68 65 211 159 311 207 267 126 548 162 947 120z m4177
-512 c40 -21 83 -66 99 -104 17 -39 18 -117 3 -181 -28 -121 -177 -367 -317
-522 l-41 -45 -251 250 -251 250 50 47 c120 111 338 253 451 293 103 37 199
41 257 12z m-2034 -244 c-34 -83 -145 -292 -192 -363 -38 -56 -208 -232 -666
-690 l-615 -615 -107 108 -108 107 615 615 c453 454 635 629 690 666 57 39
380 209 396 209 2 0 -4 -17 -13 -37z m1242 -1143 c-252 -252 -460 -458 -462
-457 -1 2 -11 72 -23 156 -39 295 -24 577 40 768 43 128 82 185 245 351 l149
153 256 -256 255 -255 -460 -460z m-3285 -129 c0 -3 -55 -26 -123 -50 -67 -24
-130 -51 -140 -59 -44 -39 -39 -45 421 -504 463 -464 469 -469 505 -417 8 11
34 74 58 140 24 65 47 119 50 119 11 0 1059 -1042 1059 -1053 0 -14 -329 -2
-476 17 -414 56 -801 196 -1146 418 -43 28 -78 51 -78 53 0 1 7 22 15 46 23
63 29 175 16 254 -37 214 -212 397 -420 441 -103 22 -222 14 -312 -21 -12 -5
-29 13 -66 72 -290 452 -444 982 -442 1518 l0 120 540 -544 c296 -300 539
-547 539 -550z m2695 483 c-22 -94 -31 -429 -16 -565 7 -57 30 -230 51 -384
61 -440 64 -468 64 -690 0 -179 -4 -225 -23 -314 -42 -196 -100 -333 -212
-501 -116 -174 -168 -212 -237 -176 -15 8 -283 272 -596 586 l-568 573 773
773 c425 425 775 772 776 770 2 -2 -4 -34 -12 -72z m-2306 -868 l294 -294 -39
-106 c-21 -58 -41 -106 -44 -106 -9 0 -724 719 -720 723 8 7 194 76 205 77 6
0 142 -132 304 -294z m-608 -336 c294 -115 373 -497 147 -718 -71 -69 -150
-122 -279 -187 -201 -102 -484 -183 -684 -197 l-39 -3 3 50 c8 155 92 454 181
642 119 251 241 384 399 429 66 19 202 11 272 -16z"/>
<path d="M5517 6228 c-15 -12 -107 -246 -107 -272 0 -16 543 -556 559 -556 16
0 218 86 249 106 20 13 22 23 22 93 0 170 -67 328 -190 451 -87 87 -179 140
-296 170 -88 23 -212 26 -237 8z m195 -109 c225 -46 417 -271 418 -490 l0 -46
-61 -27 c-33 -14 -66 -26 -72 -26 -7 0 -114 102 -238 226 l-226 226 26 74 c26
74 26 74 63 74 20 0 61 -5 90 -11z"/>
</g>
</svg>
