<svg width="36" height="36" viewBox="0 0 36 36" fill="none" xmlns="http://www.w3.org/2000/svg">
<path d="M23.805 22.875L18.75 19.875V13.08C18.75 12.48 18.27 12 17.67 12H17.58C16.98 12 16.5 12.48 16.5 13.08V20.16C16.5 20.685 16.77 21.18 17.235 21.45L22.71 24.735C23.22 25.035 23.88 24.885 24.18 24.375C24.495 23.85 24.33 23.175 23.805 22.875ZM31.77 7.51497L27.15 3.67497C26.52 3.14997 25.575 3.22497 25.035 3.86997C24.51 4.49997 24.6 5.44497 25.23 5.98497L29.835 9.82497C30.465 10.35 31.41 10.275 31.95 9.62997C32.49 8.99997 32.4 8.05497 31.77 7.51497ZM6.15001 9.82497L10.755 5.98497C11.4 5.44497 11.49 4.49997 10.95 3.86997C10.425 3.22497 9.48001 3.14997 8.85001 3.67497L4.23001 7.51497C3.60001 8.05497 3.51001 8.99997 4.05001 9.62997C4.57501 10.275 5.52001 10.35 6.15001 9.82497ZM18 5.99997C10.545 5.99997 4.50001 12.045 4.50001 19.5C4.50001 26.955 10.545 33 18 33C25.455 33 31.5 26.955 31.5 19.5C31.5 12.045 25.455 5.99997 18 5.99997ZM18 30C12.21 30 7.50001 25.29 7.50001 19.5C7.50001 13.71 12.21 8.99997 18 8.99997C23.79 8.99997 28.5 13.71 28.5 19.5C28.5 25.29 23.79 30 18 30Z" fill="#EEEEEE"/>
</svg>
