<svg id="Layer_1" data-name="Layer 1" xmlns="http://www.w3.org/2000/svg" viewBox="0 0 64 64"><defs><style>.cls-1{fill:none;stroke:#000;stroke-linecap:round;stroke-linejoin:round;}</style></defs><title>6 Astronaut</title><path class="cls-1" d="M56.2,22.16a26.19,26.19,0,0,1,.53,18.26"/><path class="cls-1" d="M20.77,55.6A26,26,0,0,1,16.42,53"/><path class="cls-1" d="M10.76,47.19A26.12,26.12,0,0,1,41.84,7.8"/><path class="cls-1" d="M29,58a26.33,26.33,0,0,0,3,.17,26,26,0,0,0,20.39-9.81"/><path class="cls-1" d="M56.38,16.13c-2.71,3.78-9.14,6.29-12.92,3.58S40,10.1,42.7,6.32a8.42,8.42,0,0,1,13.68,9.81Z"/><path class="cls-1" d="M47.78,20.83l.7.51a16.76,16.76,0,0,1,4.81,5.29,17.23,17.23,0,0,1,2.07,5.71l1.88,11.07a4.32,4.32,0,0,1-.74,3.19,4.24,4.24,0,0,1-7.63-1.79l-.21-1.23L46.92,33l-16,22.36L28,59.46a4,4,0,0,1-2.67,1.65,4.11,4.11,0,0,1-4-6.45l2.94-4.09,4.65-6.49a2.38,2.38,0,0,0,.41-1.74,2.34,2.34,0,0,0-4.21-1l-4.65,6.49-2.94,4.09A4.07,4.07,0,0,1,14.8,53.6a4.11,4.11,0,0,1-4-6.45l2.94-4.1,16-22.35L18,22.64a4.24,4.24,0,1,1-1.36-8.38l1.11-.18,10-1.59a16.72,16.72,0,0,1,6.07.13,17,17,0,0,1,6.55,2.85L41,16"/><line class="cls-1" x1="13.72" y1="43.06" x2="20.41" y2="47.85"/><line class="cls-1" x1="24.2" y1="50.57" x2="30.89" y2="55.36"/><rect class="cls-1" x="32.55" y="22.79" width="10.14" height="10.14" rx="5.07" transform="translate(23.28 -16.7) rotate(35.64)"/><line class="cls-1" x1="48.67" y1="43.58" x2="57.03" y2="42.21"/><line class="cls-1" x1="19.07" y1="22.36" x2="17.69" y2="14"/><path class="cls-1" d="M43,5.88S45.86,4,51.7,8.19s5,7.49,5,7.49"/><path class="cls-1" d="M33.75,12.62,36.1,9.34A3.51,3.51,0,0,1,41,8.53l.4.29"/><path class="cls-1" d="M54.43,18.16l.41.29a3.5,3.5,0,0,1,.8,4.9l-2.35,3.28"/><path class="cls-1" d="M30.28,12.27S26,3.62,16,5.88,4.83,3,4.83,3"/></svg>