<svg xmlns="http://www.w3.org/2000/svg" viewBox="0 0 512 512"><title>Icon</title><path d="M305.54,453.76c40.67-51.58,65.76-122.12,65.76-200C371.3,147.92,324.9,55.47,255.94,6,187,55.47,140.58,147.92,140.58,253.81c0,77.83,25.09,148.38,65.76,200Z" fill="#fff"/><path d="M142,285.08,43.28,379.75,85.58,506l58.74-12.92,33.6-83.26C158.65,373.19,146,330.75,142,285.08Z" fill="#fff"/><path d="M370,285.08l98.68,94.67L426.42,506l-58.74-12.92-33.6-83.26C353.35,373.19,366,330.75,370,285.08Z" fill="#fff"/><path d="M370,285.08c-4,45.67-16.69,88.11-36,124.74l33.6,83.26,1.09.24c25.31-47.69,42.93-102.2,50.67-160.84Z" fill="#f2eff9"/><path d="M255.94,6c43.85,49.47,73.36,141.92,73.36,247.81,0,77.83-16,148.38-41.82,200h18.06c40.67-51.58,65.76-122.12,65.76-200C371.3,147.92,324.9,55.47,255.94,6Z" fill="#f2eff9"/><path d="M256,79.71a116.17,116.17,0,0,0,57.58-15.17A250.6,250.6,0,0,0,255.94,6a250.58,250.58,0,0,0-57.61,58.48A116.17,116.17,0,0,0,256,79.71Z" fill="#646296"/><path d="M305.54,453.76c40.67-51.58,65.76-122.12,65.76-200C371.3,147.92,324.9,55.47,255.94,6,187,55.47,140.58,147.92,140.58,253.81c0,77.83,25.09,148.38,65.76,200Z" fill="none" stroke="#2f2d43" stroke-linecap="round" stroke-linejoin="round" stroke-width="12"/><path d="M142,285.08,43.28,379.75,85.58,506l58.74-12.92,33.6-83.26C158.65,373.19,146,330.75,142,285.08Z" fill="none" stroke="#2f2d43" stroke-linecap="round" stroke-linejoin="round" stroke-width="12"/><path d="M370,285.08l98.68,94.67L426.42,506l-58.74-12.92-33.6-83.26C353.35,373.19,366,330.75,370,285.08Z" fill="none" stroke="#2f2d43" stroke-linecap="round" stroke-linejoin="round" stroke-width="12"/><polygon points="268.42 506 243.58 506 228.43 285.08 283.57 285.08 268.42 506" fill="#fff"/><polygon points="268.42 506 243.58 506 228.43 285.08 283.57 285.08 268.42 506" fill="none" stroke="#2f2d43" stroke-linecap="round" stroke-linejoin="round" stroke-width="12"/><circle cx="256" cy="182.39" r="61.17" fill="#f2eff9"/><path d="M306.72,216.59a61.17,61.17,0,1,1,10.45-34.2" fill="none" stroke="#646296" stroke-linecap="round" stroke-linejoin="round" stroke-width="15"/><polyline points="334.24 175.12 316.41 192.95 298.57 175.12" fill="none" stroke="#646296" stroke-linecap="round" stroke-linejoin="round" stroke-width="15"/></svg>