<svg id="Layer_1" data-name="Layer 1" xmlns="http://www.w3.org/2000/svg" viewBox="0 0 64 64"><defs><style>.cls-1{fill:none;stroke:#000;stroke-linecap:round;stroke-linejoin:round;}</style></defs><title>4 Constellation</title><path class="cls-1" d="M56.18,41.58l0-.11q.31-.8.57-1.62l0-.12"/><path class="cls-1" d="M58,31.93a26,26,0,1,0-6.82,17.61h0"/><circle class="cls-1" cx="57.99" cy="9.01" r="3.01"/><circle class="cls-1" cx="6" cy="53.66" r="3.01"/><circle class="cls-1" cx="51.03" cy="5.29" r="2.29"/><circle class="cls-1" cx="12.45" cy="58.71" r="2.29"/><circle class="cls-1" cx="3.45" cy="15.96" r="1.77"/><circle class="cls-1" cx="18.2" cy="22.4" r="2.42"/><circle class="cls-1" cx="30.47" cy="33.38" r="1.89"/><circle class="cls-1" cx="34.57" cy="49.43" r="2.21"/><circle class="cls-1" cx="53.38" cy="49.43" r="2.21"/><circle class="cls-1" cx="58.97" cy="33.71" r="2.03"/><line class="cls-1" x1="42.66" y1="13.7" x2="42.66" y2="13.7"/><circle cx="49.24" cy="22.1" r="0.94"/><circle cx="16.5" cy="38.69" r="0.94"/><circle cx="40.78" cy="24.57" r="0.94"/><circle cx="21.3" cy="48.07" r="0.94"/><line class="cls-1" x1="15.98" y1="21.42" x2="5.09" y2="16.67"/><line class="cls-1" x1="29.08" y1="32.13" x2="19.98" y2="24"/><line class="cls-1" x1="34.04" y1="47.3" x2="30.94" y2="35.2"/><line class="cls-1" x1="58.3" y1="35.6" x2="54.12" y2="47.36"/><line class="cls-1" x1="56.94" y1="33.7" x2="32.36" y2="33.4"/><line class="cls-1" x1="51.17" y1="49.43" x2="36.78" y2="49.43"/></svg>