<svg xmlns="http://www.w3.org/2000/svg" viewBox="0 0 512 512"><title>Icon</title><path d="M99.92,261.86H412.08a42.21,42.21,0,0,1,42.21,42.21V477.22a0,0,0,0,1,0,0H57.71a0,0,0,0,1,0,0V304.07A42.21,42.21,0,0,1,99.92,261.86Z" fill="#f2eff9"/><path d="M175.92,261.86h-76a42.21,42.21,0,0,0-42.21,42.21V477.22h76V304.07A42.21,42.21,0,0,1,175.92,261.86Z" fill="#fff"/><path d="M99.92,261.86H412.08a42.21,42.21,0,0,1,42.21,42.21V477.22a0,0,0,0,1,0,0H57.71a0,0,0,0,1,0,0V304.07A42.21,42.21,0,0,1,99.92,261.86Z" fill="none" stroke="#2f2d43" stroke-linecap="round" stroke-linejoin="round" stroke-width="12"/><path d="M482,506H30V406.76a92.74,92.74,0,0,1,63.9-88.17q156.83-51.21,323.62,1.32A92.55,92.55,0,0,1,482,408.27Z" fill="#fff"/><path d="M417.5,319.91q-96.47-30.39-189.61-26,70.42,3.28,142.71,26a92.55,92.55,0,0,1,64.51,88.36V506H482V408.27A92.55,92.55,0,0,0,417.5,319.91Z" fill="#f2eff9"/><path d="M435.1,431.37a61.85,61.85,0,0,0,46.91,60V408.27a92.9,92.9,0,0,0-6.77-34.81A61.85,61.85,0,0,0,435.1,431.37Z" fill="#646296"/><path d="M30,403.65H86.69a12.59,12.59,0,0,1,12.59,12.59v32.39a12.59,12.59,0,0,1-12.59,12.59H30a0,0,0,0,1,0,0V403.65A0,0,0,0,1,30,403.65Z" fill="#646296"/><path d="M482,506H30V406.76a92.74,92.74,0,0,1,63.9-88.17q156.83-51.21,323.62,1.32A92.55,92.55,0,0,1,482,408.27Z" fill="none" stroke="#2f2d43" stroke-linecap="round" stroke-linejoin="round" stroke-width="12"/><line x1="125.94" y1="418.58" x2="125.94" y2="506" fill="none" stroke="#2f2d43" stroke-linecap="round" stroke-linejoin="round" stroke-width="12"/><line x1="386.06" y1="418.58" x2="386.06" y2="506" fill="none" stroke="#2f2d43" stroke-linecap="round" stroke-linejoin="round" stroke-width="12"/><path d="M320.78,338.81q-64.78,26.3-129.57,0a21.79,21.79,0,0,1-13.53-20.21V227.09H334.31V318.6A21.79,21.79,0,0,1,320.78,338.81Z" fill="#fff"/><path d="M294,347.41A183.75,183.75,0,0,0,317.69,340V245.93H294Z" fill="#f2eff9"/><path d="M243.81,351.47a159.82,159.82,0,0,0,23.64.06V245.93H243.81Z" fill="#f2eff9"/><path d="M195.79,340.58a182.29,182.29,0,0,0,23.64,7.17V245.93H195.79Z" fill="#f2eff9"/><path d="M320.78,338.81q-64.78,26.3-129.57,0a21.79,21.79,0,0,1-13.53-20.21V227.09H334.31V318.6A21.79,21.79,0,0,1,320.78,338.81Z" fill="none" stroke="#2f2d43" stroke-linecap="round" stroke-linejoin="round" stroke-width="12"/><rect x="74" y="113.19" width="364" height="112.77" rx="19.55" ry="19.55" fill="#fff"/><path d="M418.45,113.19h-59A19.55,19.55,0,0,1,379,132.74v73.68A19.55,19.55,0,0,1,359.45,226h59A19.55,19.55,0,0,0,438,206.42V132.74A19.55,19.55,0,0,0,418.45,113.19Z" fill="#f2eff9"/><rect x="74" y="113.19" width="364" height="112.77" rx="19.55" ry="19.55" fill="none" stroke="#2f2d43" stroke-linecap="round" stroke-linejoin="round" stroke-width="12"/><circle cx="256" cy="162.32" r="156.32" fill="#fff"/><path d="M256,6a157.39,157.39,0,0,0-25.12,2,156.34,156.34,0,0,1,0,308.6A156.33,156.33,0,1,0,256,6Z" fill="#f2eff9"/><path d="M163.67,86.49A119.47,119.47,0,0,0,175.93,251a630.63,630.63,0,0,0,160.14,0,119.47,119.47,0,0,0,12.26-164.5A631.47,631.47,0,0,0,163.67,86.49Z" fill="#403c58"/><circle cx="256" cy="162.32" r="156.32" fill="none" stroke="#2f2d43" stroke-linecap="round" stroke-linejoin="round" stroke-width="12"/><path d="M268.74,79.85q-25.86-.52-51.72,1.09L165.19,240a120.23,120.23,0,0,0,10.74,11q17.94,2.29,35.88,3.53Z" fill="#646296"/><path d="M289.71,80.62l-57.05,175q12.77.47,25.54.43L314.79,82.47Q302.25,81.29,289.71,80.62Z" fill="#646296"/><circle cx="176.58" cy="420.18" r="16.52" fill="#646296"/><circle cx="219.22" cy="420.18" r="16.52" fill="#646296"/><line x1="163.25" y1="454.83" x2="231.48" y2="454.83" fill="none" stroke="#2f2d43" stroke-linecap="round" stroke-linejoin="round" stroke-width="12"/></svg>