<svg xmlns="http://www.w3.org/2000/svg" viewBox="0 0 512 512"><title>Icon</title><polygon points="505.83 120.65 470.06 94.05 470.06 42.56 41.94 42.56 41.94 94.05 6.17 120.65 6.17 391.35 41.94 417.95 41.94 469.44 470.06 469.44 470.06 417.95 505.83 391.35 505.83 120.65" fill="#fff"/><polygon points="470.06 94.05 470.06 42.56 420.14 42.56 420.14 94.05 455.91 120.65 455.91 391.35 420.14 417.95 420.14 469.44 470.06 469.44 470.06 417.95 505.83 391.35 505.83 120.65 470.06 94.05" fill="#f2eff9"/><polygon points="505.83 120.65 470.06 94.05 470.06 42.56 41.94 42.56 41.94 94.05 6.17 120.65 6.17 391.35 41.94 417.95 41.94 469.44 470.06 469.44 470.06 417.95 505.83 391.35 505.83 120.65" fill="none" stroke="#2f2d43" stroke-linecap="round" stroke-linejoin="round" stroke-width="12"/><circle cx="256" cy="256" r="162.29" fill="#f2eff9"/><circle cx="256" cy="256" r="98.95" fill="#403c58"/><rect x="245.92" y="196.41" width="20.16" height="119.18" rx="10.08" ry="10.08" transform="translate(256 -106.04) rotate(45)" fill="#646296"/><rect x="245.92" y="196.41" width="20.16" height="119.18" rx="10.08" ry="10.08" transform="translate(618.04 256) rotate(135)" fill="#646296"/><circle cx="386.61" cy="125.39" r="11.57" transform="translate(24.57 310.1) rotate(-45)" fill="#f2eff9"/><circle cx="125.39" cy="386.61" r="11.57" transform="translate(-236.64 201.9) rotate(-45)" fill="#f2eff9"/><circle cx="386.61" cy="386.61" r="11.57" transform="translate(-160.14 386.61) rotate(-45)" fill="#f2eff9"/><circle cx="125.39" cy="125.39" r="11.57" transform="translate(-51.94 125.39) rotate(-45)" fill="#f2eff9"/></svg>