<svg id="Layer_1" data-name="Layer 1" xmlns="http://www.w3.org/2000/svg" viewBox="0 0 64 64"><defs><style>.cls-1{fill:none;stroke:#000;stroke-linecap:round;stroke-linejoin:round;}</style></defs><title>3 Earth</title><circle class="cls-1" cx="32" cy="32" r="26"/><path class="cls-1" d="M14,13.28A7.67,7.67,0,0,1,16,15.4c.41,1,1.5.51,1.93-.22s1.45-2.3,2.44-1.9,1.62,1,2,.87,1.64,1.23,1.25,1.79-3.1.78-3.3,1.33,1,1.29-.21,1.91-1,0-2.46.78S13,22.56,12.9,24.27s-3,3.87-3,3.87,1.44,2.53,2.47,3,3.79.84,5.62,1.7,4.35,1.56,4.49,2.69a1.82,1.82,0,0,0,1.89,1.77,2.7,2.7,0,0,1,1.87.63c.24.21,2,.56,2.23,1.38S27.51,41,27.22,42s-.12,3.25-1.56,3.66-1.62,1-1.82,2.15S22,51.63,18.31,54.11"/><path class="cls-1" d="M16.12,52.59s-.51-4,.15-5.67a3.31,3.31,0,0,0-1.22-3.84c-.84-.43-3.22-2.36-3.2-4.23s0-2.27.82-3.16a1.33,1.33,0,0,0-.82-2.15A4.26,4.26,0,0,1,9,31.59C8.57,30.65,6,30.71,6,30.71"/><path class="cls-1" d="M26.55,6.57s2.13,1.2,2.05,2.55-.74,3.22.48,3.35S30.77,11.07,32,11s4.55-2.89,5.27-4.46"/><path class="cls-1" d="M45.86,10s-2.69,1.5-3.17,2.33,1,1.58-.12,2.33-3.79.84-3.49,1.91-1.09.83-1.81,1.64a3.16,3.16,0,0,0-.49,2.42c0,.3,1.76.71,2.63.27s.77-2.21,1.73-2.51,2.15-.39,2.24.42,1.28.74,1.62.19a1.47,1.47,0,0,1,2.28-.43c.9.86,1.41,2.12,2.51,2.09s1,.32,1.76,1,3.33,1.46,4.42.24c-.28,1.61-2,2.6-3.72,2.56s-2.78-.91-4-.16A2.82,2.82,0,0,1,45,23.77c-.67-.63-1.33-1.87-3.32-1.5s-2.86.79-3.94.92S36,24,35.09,25.34s-2.53,1.12-2,2.74S33,30.53,33,31.81s.19,2.36,2.72,2.9,6.34-.08,7,.63,1.21,5,.42,6.71,1.24,5.23,2.28,6.1,5.51,1.49,6.92-2.32,5.11-8.27,5.11-8.27"/><line class="cls-1" x1="8.92" y1="4.59" x2="8.92" y2="4.59"/><circle cx="3.94" cy="3.94" r="0.94"/><circle cx="6.03" cy="9.51" r="0.94"/><line class="cls-1" x1="58" y1="54.11" x2="58" y2="54.11"/><circle cx="60.06" cy="56.8" r="0.94"/><circle cx="54.25" cy="60.06" r="0.94"/></svg>