<svg xmlns="http://www.w3.org/2000/svg" viewBox="0 0 512 512"><title>Icon</title><circle cx="256" cy="256" r="245.2" fill="#fff"/><path d="M256,10.8c98,0,177.48,109.78,177.48,245.2S354,501.2,256,501.2c135.42,0,245.2-109.78,245.2-245.2S391.42,10.8,256,10.8Z" fill="#f2eff9"/><circle cx="256" cy="256" r="245.2" fill="none" stroke="#2f2d43" stroke-linecap="round" stroke-linejoin="round" stroke-width="12"/><circle cx="256" cy="256" r="162.29" fill="#f2eff9"/><circle cx="256" cy="256" r="98.95" fill="#403c58"/><rect x="245.92" y="196.41" width="20.16" height="119.18" rx="10.08" ry="10.08" transform="translate(256 -106.04) rotate(45)" fill="#646296"/><rect x="245.92" y="196.41" width="20.16" height="119.18" rx="10.08" ry="10.08" transform="translate(618.04 256) rotate(135)" fill="#646296"/><circle cx="386.61" cy="125.39" r="11.57" transform="translate(24.57 310.1) rotate(-45)" fill="#f2eff9"/><circle cx="125.39" cy="386.61" r="11.57" transform="translate(-236.64 201.9) rotate(-45)" fill="#f2eff9"/><circle cx="386.61" cy="386.61" r="11.57" transform="translate(-160.14 386.61) rotate(-45)" fill="#f2eff9"/><circle cx="125.39" cy="125.39" r="11.57" transform="translate(-51.94 125.39) rotate(-45)" fill="#f2eff9"/></svg>