<svg xmlns="http://www.w3.org/2000/svg" viewBox="0 0 512 512"><title>Icon</title><path d="M305.54,453.76c40.67-51.58,65.76-122.12,65.76-200C371.3,147.92,324.9,55.47,255.94,6,187,55.47,140.58,147.92,140.58,253.81c0,77.83,25.09,148.38,65.76,200Z" fill="#fff"/><path d="M142,285.08,43.28,379.75,85.58,506l58.74-12.92,33.6-83.26C158.65,373.19,146,330.75,142,285.08Z" fill="#fff"/><path d="M370,285.08l98.68,94.67L426.42,506l-58.74-12.92-33.6-83.26C353.35,373.19,366,330.75,370,285.08Z" fill="#fff"/><path d="M370,285.08c-4,45.67-16.69,88.11-36,124.74l33.6,83.26,1.09.24c25.31-47.69,42.93-102.2,50.67-160.84Z" fill="#f2eff9"/><polygon points="75.71 476.56 85.58 506 144.32 493.08 158.05 459.06 75.71 476.56" fill="#646296"/><polygon points="437.29 476.56 427.42 506 368.68 493.08 354.95 459.06 437.29 476.56" fill="#646296"/><path d="M255.94,6c43.85,49.47,73.36,141.92,73.36,247.81,0,77.83-16,148.38-41.82,200h18.06c40.67-51.58,65.76-122.12,65.76-200C371.3,147.92,324.9,55.47,255.94,6Z" fill="#f2eff9"/><path d="M256,79.71a116.17,116.17,0,0,0,57.58-15.17A250.6,250.6,0,0,0,255.94,6a250.58,250.58,0,0,0-57.61,58.48A116.17,116.17,0,0,0,256,79.71Z" fill="#646296"/><path d="M179.13,412.12a285.18,285.18,0,0,0,27.21,41.65h99.2a285.18,285.18,0,0,0,27.21-41.65Z" fill="#646296"/><path d="M305.54,453.76c40.67-51.58,65.76-122.12,65.76-200C371.3,147.92,324.9,55.47,255.94,6,187,55.47,140.58,147.92,140.58,253.81c0,77.83,25.09,148.38,65.76,200Z" fill="none" stroke="#2f2d43" stroke-linecap="round" stroke-linejoin="round" stroke-width="12"/><path d="M142,285.08,43.28,379.75,85.58,506l58.74-12.92,33.6-83.26C158.65,373.19,146,330.75,142,285.08Z" fill="none" stroke="#2f2d43" stroke-linecap="round" stroke-linejoin="round" stroke-width="12"/><path d="M370,285.08l98.68,94.67L426.42,506l-58.74-12.92-33.6-83.26C353.35,373.19,366,330.75,370,285.08Z" fill="none" stroke="#2f2d43" stroke-linecap="round" stroke-linejoin="round" stroke-width="12"/><polygon points="268.42 506 243.58 506 228.43 285.08 283.57 285.08 268.42 506" fill="#fff"/><polygon points="268.42 506 243.58 506 228.43 285.08 283.57 285.08 268.42 506" fill="none" stroke="#2f2d43" stroke-linecap="round" stroke-linejoin="round" stroke-width="12"/><circle cx="256" cy="182.39" r="61.17" fill="#f2eff9"/><path d="M259,124.14l-8.57-15.38H237.37a17.25,17.25,0,0,0-14.62,7.86L214.09,130l30.74,18.57Z" fill="#403c58"/><path d="M308.67,134.26l-10.76-17.55a15.88,15.88,0,0,0-14-8h-33.5l25.12,45.11-14,8,41.58,4.49,19.89-39Z" fill="#646296"/><path d="M325.86,164.47,292.33,183l14,23.88h22.35l5.84-9a15.48,15.48,0,0,0,.4-16.37Z" fill="#403c58"/><path d="M272.77,206.93V193.66l-27.94,29.19,27.94,34.49V246.73h22.35a15.35,15.35,0,0,0,14-8l19.56-31.84Z" fill="#646296"/><path d="M205.14,209.58l-9,14.89,8.5,14a17.92,17.92,0,0,0,15.07,8.27h11.18V209.58Z" fill="#403c58"/><path d="M236.44,185.7l-16.77-34.49L175,153.86l16,9.41L180.55,183a15.7,15.7,0,0,0,0,15.92l15.55,25.5,5.82-9.58,20.77-34.23Z" fill="#646296"/></svg>