<svg id="Layer_1" data-name="Layer 1" xmlns="http://www.w3.org/2000/svg" viewBox="0 0 64 64"><defs><style>.cls-1{fill:none;stroke:#000;stroke-linecap:round;stroke-linejoin:round;}</style></defs><title>2 Rocket</title><path class="cls-1" d="M7.87,22.31A26,26,0,0,1,43.38,8.62"/><path class="cls-1" d="M16.92,53.17A25.84,25.84,0,0,0,32,58a22.45,22.45,0,0,0,2.33-.11"/><path class="cls-1" d="M6.11,29.66C6,30.43,6,31.21,6,32a25.79,25.79,0,0,0,4.84,15.09"/><path class="cls-1" d="M41.7,56.12A26,26,0,0,0,55.39,20.63s0,0,0,0"/><path class="cls-1" d="M61,8.25A5,5,0,0,0,55.74,3c-3.47.21-8.44,1.62-13.59,6.78l-28,28,6,6v0l6,6,28-28C59.39,16.7,60.79,11.72,61,8.25Z"/><path class="cls-1" d="M30.82,21.1s-2.29,2.29-8.68,1.5C14.69,21.69,9.28,20,3.49,24.91A1.39,1.39,0,0,0,3.41,27L14.18,37.74Z"/><path class="cls-1" d="M42.9,33.18s-2.29,2.29-1.5,8.69c.92,7.44,2.66,12.86-2.31,18.65A1.41,1.41,0,0,1,37,60.6L26.26,49.82Z"/><path class="cls-1" d="M51.33,35.4s5.83-5.83,3.17-8.49S46,30.08,46,30.08l5.32,5.32-9.51,9.52"/><path class="cls-1" d="M28.6,12.67s5.83-5.83,8.5-3.17S33.93,18,33.93,18L28.6,12.67l-9.51,9.52"/><path class="cls-1" d="M50,9.46l4.65,4.64,1.9-.81a5.38,5.38,0,0,0-5.83-5.83Z"/><path class="cls-1" d="M36.09,27.9s-4.33,1.64-6,3.32L18.87,42.43l1.35,1.34v0l1.34,1.34L32.78,33.92c1.68-1.68,3.33-6,3.33-6"/><polygon class="cls-1" points="22.06 49.9 14.28 42.12 17.41 40.96 23.22 46.78 22.06 49.9"/><path class="cls-1" d="M16.1,54.29C14.34,56.05,9.88,57.93,6,58,6.09,54.07,8,49.66,9.72,47.9a4.51,4.51,0,0,1,6.38,6.39Z"/></svg>