<svg width="870" height="724" viewBox="0 0 870 724" fill="none" xmlns="http://www.w3.org/2000/svg">
<g opacity="0.7">
<path opacity="0.7" d="M549.724 325.884C549.799 302.977 544.314 280.394 533.738 260.074C528.716 250.531 524.136 244.599 520.572 240.96C519.229 239.535 517.473 238.565 515.551 238.186C513.629 237.807 511.637 238.037 509.852 238.845C508.426 239.348 507.138 240.179 506.091 241.271C501.323 246.206 497.017 252.731 493.255 259.679C482.129 280.474 476.354 303.711 476.451 327.294V341.453H467.367V176.927C467.367 142.442 459.647 108.418 444.526 78.211C437.36 63.9113 430.825 55.0269 425.794 49.5647C424.575 48.1761 423.074 47.0635 421.391 46.3013C419.707 45.5392 417.881 45.1449 416.033 45.1449C414.185 45.1449 412.359 45.5392 410.675 46.3013C408.992 47.0635 407.491 48.1761 406.272 49.5647C399.464 56.9636 393.323 66.7412 387.954 77.1392C372.052 107.967 363.975 142.95 363.975 178.459V341.453H356.123V326.617C356.22 303.034 350.445 279.797 339.319 259.002C335.557 252.064 331.25 245.539 326.483 240.594C325.11 239.149 323.314 238.177 321.354 237.819C319.393 237.46 317.369 237.734 315.575 238.601L315.904 238.779C314.752 239.288 313.711 240.016 312.838 240.923C309.312 244.561 304.732 250.493 299.673 260.036C289.097 280.357 283.611 302.94 283.687 325.846V571.827H311.71L308.654 592.05V652.511H331.561V592.05L328.504 571.827H356.123V347.818H363.975V570.821H386.355L383.139 592.04V652.511H406.056V592.05L402.84 570.831H432.997L429.781 592.05V652.511H452.698V592.05L449.482 570.831H467.348V347.818H476.432V572.166H483.795V571.827H508.141L505.085 592.05V652.511H528.001V592.05L524.945 571.827H549.724V325.884Z" fill="url(#paint0_linear)"/>
</g>
<path d="M336.121 580.26H314.427L318.302 553.927H332.247L336.121 580.26Z" fill="#535461"/>
<g opacity="0.1">
<path opacity="0.1" d="M317.22 564.381H333.329L332.247 557.02H318.302L317.22 564.381Z" fill="black"/>
</g>
<path d="M522.086 580.26H500.392L504.267 553.927H518.212L522.086 580.26Z" fill="#535461"/>
<g opacity="0.1">
<path opacity="0.1" d="M503.185 564.381H519.294L518.212 557.02H504.267L503.185 564.381Z" fill="black"/>
</g>
<path d="M406.639 580.26H384.935L388.81 553.927H402.765L406.639 580.26Z" fill="#535461"/>
<g opacity="0.1">
<path opacity="0.1" d="M387.728 564.381H403.846L402.765 557.02H388.81L387.728 564.381Z" fill="black"/>
</g>
<path d="M450.798 580.26H429.104L432.978 553.927H446.924L450.798 580.26Z" fill="#535461"/>
<g opacity="0.1">
<path opacity="0.1" d="M431.897 564.381H448.015L446.924 557.02H432.978L431.897 564.381Z" fill="black"/>
</g>
<path d="M491.092 336.235H336.121V342.431H491.092V336.235Z" fill="#535461"/>
<path d="M515.053 238.337C514.234 237.434 513.235 236.711 512.119 236.217C511.004 235.723 509.798 235.467 508.578 235.467C507.358 235.467 506.152 235.723 505.037 236.217C503.922 236.711 502.923 237.434 502.104 238.337C497.59 243.142 493.518 249.497 489.955 256.257C479.408 276.585 473.952 299.167 474.053 322.067V560.574H542.633V321.08C542.72 298.808 537.528 276.832 527.484 256.952C522.726 247.664 518.391 241.882 515.053 238.337Z" fill="#E0E0E0"/>
<path d="M318.396 238.337C319.215 237.434 320.214 236.711 321.329 236.217C322.444 235.723 323.65 235.467 324.87 235.467C326.09 235.467 327.296 235.723 328.411 236.217C329.526 236.711 330.525 237.434 331.344 238.337C335.858 243.142 339.93 249.497 343.494 256.257C354.04 276.585 359.497 299.167 359.395 322.067V560.574H290.796V321.08C290.71 298.808 295.901 276.832 305.945 256.952C310.694 247.664 315.029 241.882 318.396 238.337Z" fill="#E0E0E0"/>
<path d="M291.182 326.166L307.45 326.241V346.304H291.182V326.166Z" fill="#535461"/>
<path d="M343.099 326.166L359.367 326.241V346.304H343.099V326.166Z" fill="#535461"/>
<path d="M474.044 326.166L490.321 326.241V346.304H474.044V326.166Z" fill="#535461"/>
<path d="M525.961 326.166L542.238 326.241V346.304H525.961V326.166Z" fill="#535461"/>
<g opacity="0.1">
<path opacity="0.1" d="M343.466 255.946C339.911 249.187 335.83 242.831 331.316 238.027C330.041 236.619 328.339 235.666 326.472 235.315C324.604 234.963 322.673 235.232 320.972 236.081C321.952 236.57 322.837 237.229 323.586 238.027C328.1 242.831 332.172 249.187 335.736 255.946C346.282 276.275 351.739 298.857 351.637 321.757V560.245H359.386V321.785C359.486 298.874 354.023 276.281 343.466 255.946Z" fill="black"/>
</g>
<g opacity="0.1">
<path opacity="0.1" d="M496.123 256.605C499.678 249.845 503.759 243.489 508.273 238.685C509.118 237.776 510.138 237.047 511.272 236.542C509.596 235.808 507.731 235.62 505.942 236.005C504.153 236.389 502.531 237.327 501.305 238.685C496.791 243.489 492.719 249.845 489.155 256.605C478.609 276.933 473.152 299.515 473.254 322.415V560.903H480.231V322.453C480.121 299.541 485.574 276.945 496.123 256.605Z" fill="black"/>
</g>
<path d="M336.121 580.26H314.427V639.133H336.121V580.26Z" fill="url(#paint1_linear)"/>
<path d="M406.629 580.26H384.935V639.133H406.629V580.26Z" fill="url(#paint2_linear)"/>
<path d="M450.798 580.26H429.104V639.133H450.798V580.26Z" fill="url(#paint3_linear)"/>
<path d="M522.086 580.26H500.392V639.133H522.086V580.26Z" fill="url(#paint4_linear)"/>
<path d="M425.314 51.3415C424.181 49.9948 422.767 48.9121 421.171 48.1694C419.575 47.4266 417.836 47.0417 416.075 47.0417C414.315 47.0417 412.576 47.4266 410.98 48.1694C409.384 48.9121 407.97 49.9948 406.836 51.3415C400.395 58.5431 394.612 68.0668 389.496 78.2016C374.45 108.23 366.796 142.31 366.796 176.87V559.596H464.678V175.328C464.678 141.746 457.371 108.578 443.049 79.2358C436.269 65.3121 430.082 56.6628 425.314 51.3415Z" fill="#EEEEEE"/>
<path d="M430.251 93.8551H399.868C394.155 93.8551 389.524 98.4852 389.524 104.197V106.914C389.524 112.625 394.155 117.255 399.868 117.255H430.251C435.964 117.255 440.595 112.625 440.595 106.914V104.197C440.595 98.4852 435.964 93.8551 430.251 93.8551Z" fill="#6C63FF"/>
<g opacity="0.7">
<path opacity="0.7" d="M643.759 632.702C640.547 613.34 630.156 595.899 614.655 583.856C599.155 571.813 579.685 566.051 560.125 567.72C540.566 569.388 522.353 578.365 509.118 592.86C495.883 607.355 488.597 626.304 488.713 645.93C488.713 646.315 488.713 646.691 488.713 647.077C485.826 647.514 482.969 648.126 480.156 648.91C476.554 634.568 468.58 621.7 457.34 612.088C446.099 602.477 432.147 596.597 417.417 595.264C402.686 593.931 387.905 597.21 375.121 604.646C362.336 612.083 352.181 623.31 346.061 636.773C339.753 634.34 333.128 632.826 326.389 632.279C325.314 626.178 323.511 620.228 321.019 614.557C319.85 596.662 311.975 579.866 298.966 567.52C285.957 555.174 268.77 548.184 250.835 547.947C232.9 547.71 215.534 554.242 202.203 566.24C188.872 578.237 180.555 594.819 178.912 612.677C175.22 620.494 172.862 628.873 171.935 637.468C155.612 644.258 142.391 656.865 134.835 672.846C127.279 688.826 125.926 707.042 131.039 723.962H702.381C705.359 714.093 706.162 703.695 704.734 693.486C703.306 683.276 699.681 673.498 694.109 664.823C688.537 656.149 681.151 648.786 672.459 643.241C663.766 637.695 653.975 634.1 643.759 632.702Z" fill="url(#paint5_linear)"/>
</g>
<path d="M256.445 688.359C294.269 688.359 324.931 657.703 324.931 619.888C324.931 582.072 294.269 551.417 256.445 551.417C218.621 551.417 187.959 582.072 187.959 619.888C187.959 657.703 218.621 688.359 256.445 688.359Z" fill="url(#paint6_linear)"/>
<path d="M256.106 720.54C297.524 720.54 331.1 686.972 331.1 645.563C331.1 604.155 297.524 570.586 256.106 570.586C214.689 570.586 181.113 604.155 181.113 645.563C181.113 686.972 214.689 720.54 256.106 720.54Z" fill="url(#paint7_linear)"/>
<path d="M560.876 720.54C602.294 720.54 635.87 686.972 635.87 645.563C635.87 604.155 602.294 570.586 560.876 570.586C519.458 570.586 485.883 604.155 485.883 645.563C485.883 686.972 519.458 720.54 560.876 720.54Z" fill="url(#paint8_linear)"/>
<path d="M557.105 720.54C594.929 720.54 625.592 689.885 625.592 652.069C625.592 614.253 594.929 583.598 557.105 583.598C519.282 583.598 488.619 614.253 488.619 652.069C488.619 689.885 519.282 720.54 557.105 720.54Z" fill="url(#paint9_linear)"/>
<path d="M479.714 665.081C479.725 675.909 477.163 686.584 472.239 696.228C467.314 705.872 460.169 714.208 451.39 720.55H371.056C361.547 713.679 353.963 704.482 349.029 693.84C344.095 683.198 341.977 671.468 342.878 659.773C343.779 648.079 347.668 636.811 354.174 627.05C360.679 617.289 369.582 609.362 380.031 604.027C390.48 598.693 402.123 596.13 413.846 596.585C425.569 597.04 436.979 600.497 446.983 606.624C456.987 612.752 465.249 621.345 470.979 631.581C476.708 641.816 479.713 653.351 479.705 665.081H479.714Z" fill="url(#paint10_linear)"/>
<path d="M564.647 714.382C564.647 716.432 564.556 718.459 564.374 720.465C564.382 720.493 564.382 720.522 564.374 720.55H427.947C427.759 718.519 427.665 716.46 427.665 714.392C427.654 698.007 433.524 682.162 444.21 669.74C454.896 657.317 469.687 649.142 485.892 646.701C489.279 646.192 492.699 645.934 496.123 645.93C497.872 645.93 499.612 645.996 501.333 646.118C513.608 647.057 525.404 651.283 535.481 658.354C545.558 665.424 553.544 675.078 558.601 686.3C558.883 686.92 559.155 687.55 559.409 688.18C562.868 696.483 564.648 705.388 564.647 714.382Z" fill="url(#paint11_linear)"/>
<path d="M694.087 700.684C694.095 707.411 693.106 714.102 691.153 720.54H560.068C556.898 710.011 556.295 698.877 558.309 688.067C558.422 687.475 558.535 686.873 558.666 686.29C561.966 670.982 570.413 657.266 582.599 647.428C594.785 637.59 609.975 632.223 625.639 632.222C627.792 632.222 629.908 632.316 632.005 632.523C632.945 632.598 633.886 632.711 634.826 632.834C651.241 635.066 666.289 643.171 677.185 655.646C688.082 668.122 694.086 684.122 694.087 700.684Z" fill="url(#paint12_linear)"/>
<path d="M273.381 720.55C273.606 719.835 273.804 719.121 274.001 718.397C277.119 706.739 277.102 694.465 273.952 682.816C270.802 671.167 264.63 660.556 256.061 652.057C247.493 643.558 236.831 637.472 225.155 634.415C213.479 631.358 201.202 631.439 189.567 634.648C186.842 635.396 184.169 636.319 181.564 637.412C165.88 643.936 153.177 656.05 145.918 671.405C138.659 686.761 137.361 704.264 142.276 720.521H273.381V720.55Z" fill="url(#paint13_linear)"/>
<g opacity="0.7">
<path opacity="0.7" d="M668.058 579.725C674.997 579.725 680.621 574.101 680.621 567.164C680.621 560.227 674.997 554.604 668.058 554.604C661.12 554.604 655.495 560.227 655.495 567.164C655.495 574.101 661.12 579.725 668.058 579.725Z" fill="url(#paint14_linear)"/>
</g>
<path d="M668.058 578.803C674.488 578.803 679.7 573.592 679.7 567.164C679.7 560.736 674.488 555.525 668.058 555.525C661.629 555.525 656.417 560.736 656.417 567.164C656.417 573.592 661.629 578.803 668.058 578.803Z" fill="url(#paint15_linear)"/>
<g opacity="0.7">
<path opacity="0.7" d="M725.589 702.057C733.156 702.057 739.29 695.924 739.29 688.359C739.29 680.794 733.156 674.661 725.589 674.661C718.022 674.661 711.888 680.794 711.888 688.359C711.888 695.924 718.022 702.057 725.589 702.057Z" fill="url(#paint16_linear)"/>
</g>
<path d="M725.589 701.37C732.777 701.37 738.604 695.545 738.604 688.359C738.604 681.173 732.777 675.347 725.589 675.347C718.402 675.347 712.575 681.173 712.575 688.359C712.575 695.545 718.402 701.37 725.589 701.37Z" fill="url(#paint17_linear)"/>
<g opacity="0.7">
<path opacity="0.7" d="M139.333 625.35C147.647 625.35 154.388 618.611 154.388 610.298C154.388 601.986 147.647 595.247 139.333 595.247C131.018 595.247 124.278 601.986 124.278 610.298C124.278 618.611 131.018 625.35 139.333 625.35Z" fill="url(#paint18_linear)"/>
</g>
<path d="M139.333 624.673C147.274 624.673 153.711 618.237 153.711 610.298C153.711 602.359 147.274 595.923 139.333 595.923C131.392 595.923 124.955 602.359 124.955 610.298C124.955 618.237 131.392 624.673 139.333 624.673Z" fill="url(#paint19_linear)"/>
<g opacity="0.4">
<path opacity="0.4" d="M706.509 16.4244C703.172 12.0157 698.991 8.31484 694.21 5.53745C688.724 2.38582 682.588 0.536333 676.274 0.131696C669.96 -0.27294 663.637 0.778098 657.794 3.2037C651.951 5.62931 646.743 9.36463 642.573 14.1214C638.403 18.8783 635.381 24.5294 633.742 30.6387C632.102 36.7481 631.889 43.1524 633.117 49.3574C634.346 55.5624 636.984 61.4022 640.828 66.4262C644.672 71.4502 649.619 75.5242 655.288 78.3336C660.957 81.1431 667.195 82.6129 673.522 82.6297C674.396 82.6297 675.271 82.6297 676.136 82.5451C683.58 82.0757 690.757 79.5992 696.906 75.3789C703.055 71.1585 707.946 65.3518 711.059 58.5755C714.172 51.7993 715.391 44.3065 714.587 36.8932C713.782 29.4798 710.985 22.4227 706.491 16.4714L706.509 16.4244Z" fill="url(#paint20_linear)"/>
</g>
<path opacity="0.2" d="M712.575 41.2914C712.576 51.2141 708.796 60.7646 702.004 68.0002C695.212 75.2358 685.919 79.6131 676.014 80.2418C675.196 80.2982 674.368 80.3264 673.541 80.3264C667.555 80.3228 661.651 78.9432 656.284 76.294C650.916 73.6449 646.231 69.7972 642.588 65.0485C638.946 60.2998 636.445 54.7773 635.278 48.9079C634.111 43.0386 634.31 36.9795 635.86 31.1993C637.409 25.4191 640.267 20.0725 644.213 15.5729C648.159 11.0733 653.087 7.54117 658.616 5.24969C664.146 2.95821 670.128 1.9687 676.101 2.35768C682.074 2.74667 687.877 4.50371 693.062 7.49298C697.585 10.1187 701.539 13.6183 704.695 17.7876C709.819 24.5509 712.587 32.8064 712.575 41.2914Z" fill="#6C63FF"/>
<path opacity="0.05" d="M663.93 16.5373C661.914 17.407 659.967 18.4317 658.109 19.6022C656.868 20.2902 655.803 21.2555 654.997 22.4226C654.603 23.008 654.386 23.6946 654.373 24.4C654.359 25.1054 654.55 25.7996 654.921 26.3995C655.862 27.6969 657.742 27.9037 659.313 27.9883C660.756 28.2948 662.255 28.2125 663.656 27.75C665.057 27.2875 666.31 26.4613 667.287 25.3559L670.644 22.3098C671.81 21.2568 673.089 19.7996 672.581 18.3142C672.196 17.1766 670.917 16.6219 669.76 16.4339C666.875 15.8661 663.882 16.3923 661.363 17.9099" fill="#F55F44"/>
<path opacity="0.05" d="M649.909 58.7499C651.041 58.7499 651.959 57.8323 651.959 56.7004C651.959 55.5685 651.041 54.6509 649.909 54.6509C648.777 54.6509 647.859 55.5685 647.859 56.7004C647.859 57.8323 648.777 58.7499 649.909 58.7499Z" fill="#F55F44"/>
<path opacity="0.05" d="M691.689 51.2194C695.849 51.2194 699.222 47.8478 699.222 43.6888C699.222 39.5298 695.849 36.1582 691.689 36.1582C687.529 36.1582 684.157 39.5298 684.157 43.6888C684.157 47.8478 687.529 51.2194 691.689 51.2194Z" fill="#F55F44"/>
<path opacity="0.05" d="M704.704 17.7783C704.674 19.746 704.08 21.6637 702.992 23.3036C701.904 24.9434 700.367 26.2364 698.566 27.0288C696.764 27.8212 694.772 28.0796 692.828 27.7735C690.884 27.4673 689.068 26.6094 687.597 25.3016C686.126 23.9939 685.062 22.2914 684.531 20.3966C683.999 18.5017 684.023 16.4942 684.6 14.6126C685.176 12.731 686.281 11.0545 687.783 9.78241C689.285 8.51032 691.121 7.69614 693.072 7.43665C697.599 10.0762 701.553 13.592 704.704 17.7783Z" fill="#F55F44"/>
<path opacity="0.05" d="M705.456 63.7703C702.098 68.5475 697.708 72.5083 692.612 75.3595C687.515 78.2108 681.843 79.8793 676.014 80.2417C675.967 79.7059 675.938 79.1606 675.938 78.6153C675.94 75.1897 676.893 71.8318 678.691 68.916C680.489 66.0001 683.062 63.641 686.123 62.1017C689.184 60.5623 692.613 59.9032 696.026 60.1978C699.44 60.4924 702.705 61.7293 705.456 63.7703Z" fill="#F55F44"/>
<path opacity="0.25" d="M679.7 328.883C682.349 328.883 684.496 326.737 684.496 324.088C684.496 321.44 682.349 319.294 679.7 319.294C677.051 319.294 674.904 321.44 674.904 324.088C674.904 326.737 677.051 328.883 679.7 328.883Z" fill="#535461"/>
<path opacity="0.25" d="M40.2567 454.863C42.9054 454.863 45.0525 452.717 45.0525 450.068C45.0525 447.42 42.9054 445.274 40.2567 445.274C37.608 445.274 35.4609 447.42 35.4609 450.068C35.4609 452.717 37.608 454.863 40.2567 454.863Z" fill="#535461"/>
<path opacity="0.25" d="M864.95 482.128C867.599 482.128 869.746 479.981 869.746 477.333C869.746 474.685 867.599 472.538 864.95 472.538C862.302 472.538 860.154 474.685 860.154 477.333C860.154 479.981 862.302 482.128 864.95 482.128Z" fill="#535461"/>
<path opacity="0.25" d="M271.509 254.931C274.158 254.931 276.305 252.784 276.305 250.136C276.305 247.488 274.158 245.341 271.509 245.341C268.861 245.341 266.714 247.488 266.714 250.136C266.714 252.784 268.861 254.931 271.509 254.931Z" fill="#535461"/>
<path opacity="0.25" d="M255.758 144.689C258.407 144.689 260.554 142.542 260.554 139.894C260.554 137.246 258.407 135.099 255.758 135.099C253.11 135.099 250.963 137.246 250.963 139.894C250.963 142.542 253.11 144.689 255.758 144.689Z" fill="#535461"/>
<path opacity="0.25" d="M120.149 363.114C122.798 363.114 124.945 360.967 124.945 358.319C124.945 355.671 122.798 353.525 120.149 353.525C117.501 353.525 115.354 355.671 115.354 358.319C115.354 360.967 117.501 363.114 120.149 363.114Z" fill="#535461"/>
<path opacity="0.25" d="M798.533 363.951H794.264V359.692H792.524V363.951H788.255V365.699H792.524V369.958H794.264V365.699H798.533V363.951Z" fill="#535461"/>
<path opacity="0.25" d="M870 216.347H865.731V212.088H863.991V216.347H859.722V218.096H863.991V222.355H865.731V218.096H870V216.347Z" fill="#535461"/>
<path opacity="0.25" d="M565.672 133.887H561.403V129.618H559.663V133.887H555.394V135.626H559.663V139.894H561.403V135.626H565.672V133.887Z" fill="#535461"/>
<path opacity="0.25" d="M751.957 339.986H747.688V335.728H745.948V339.986H741.688V341.735H745.948V345.994H747.688V341.735H751.957V339.986Z" fill="#535461"/>
<path opacity="0.25" d="M595.801 481.723H591.541V477.464H589.802V481.723H585.532V483.472H589.802V487.731H591.541V483.472H595.801V481.723Z" fill="#535461"/>
<path opacity="0.25" d="M158.855 189.346H154.585V185.087H152.846V189.346H148.576V191.085H152.846V195.354H154.585V191.085H158.855V189.346Z" fill="#535461"/>
<path opacity="0.25" d="M10.2781 244.815H6.00888V240.556H4.26922V244.815H0V246.554H4.26922V250.823H6.00888V246.554H10.2781V244.815Z" fill="#535461"/>
<path opacity="0.25" d="M217.749 419.42H213.48V415.151H211.74V419.42H207.48V421.159H211.74V425.427H213.48V421.159H217.749V419.42Z" fill="#535461"/>
<path d="M725.589 701.37C732.777 701.37 738.604 695.545 738.604 688.359C738.604 681.173 732.777 675.347 725.589 675.347C718.402 675.347 712.575 681.173 712.575 688.359C712.575 695.545 718.402 701.37 725.589 701.37Z" fill="url(#paint21_linear)"/>
<g opacity="0.4">
<path opacity="0.4" d="M252.919 327.473C251.33 325.372 249.338 323.607 247.06 322.283C244.448 320.763 241.52 319.865 238.504 319.659C235.488 319.453 232.465 319.945 229.67 321.096C226.875 322.248 224.383 324.027 222.387 326.298C220.392 328.568 218.946 331.267 218.163 334.186C217.38 337.106 217.28 340.166 217.872 343.13C218.463 346.094 219.73 348.881 221.574 351.276C223.417 353.672 225.788 355.61 228.502 356.94C231.217 358.271 234.201 358.958 237.224 358.949C237.638 358.949 238.061 358.949 238.465 358.949C242.009 358.723 245.425 357.541 248.351 355.531C251.278 353.52 253.605 350.755 255.087 347.529C256.569 344.303 257.149 340.736 256.768 337.207C256.386 333.677 255.056 330.317 252.919 327.482V327.473Z" fill="url(#paint22_linear)"/>
</g>
<path opacity="0.2" d="M255.805 339.319C255.805 344.045 254.005 348.593 250.769 352.039C247.534 355.485 243.108 357.569 238.39 357.868C238.005 357.868 237.61 357.868 237.215 357.868C234.364 357.865 231.553 357.207 228.998 355.945C226.443 354.683 224.212 352.85 222.478 350.588C220.744 348.327 219.554 345.697 218.999 342.902C218.444 340.107 218.539 337.222 219.276 334.47C220.014 331.717 221.375 329.171 223.254 327.029C225.133 324.886 227.479 323.204 230.112 322.112C232.745 321.021 235.593 320.549 238.437 320.734C241.282 320.918 244.045 321.754 246.515 323.177C248.667 324.427 250.55 326.092 252.053 328.075C254.504 331.31 255.823 335.261 255.805 339.319Z" fill="#6C63FF"/>
<path opacity="0.1" d="M232.635 327.529C231.658 327.941 230.715 328.428 229.814 328.987C229.224 329.309 228.715 329.762 228.328 330.312C228.149 330.593 228.054 330.919 228.054 331.252C228.054 331.586 228.149 331.912 228.328 332.193C228.602 332.461 228.93 332.667 229.29 332.797C229.65 332.926 230.034 332.977 230.416 332.945C231.097 333.084 231.804 333.042 232.464 332.823C233.124 332.603 233.715 332.214 234.177 331.694L235.776 330.246C236.331 329.739 236.942 329.052 236.716 328.366C236.59 328.107 236.399 327.884 236.162 327.719C235.925 327.554 235.65 327.453 235.362 327.426C233.989 327.157 232.564 327.409 231.366 328.131" fill="#F55F44"/>
<path opacity="0.1" d="M225.959 347.63C226.499 347.63 226.936 347.192 226.936 346.652C226.936 346.112 226.499 345.674 225.959 345.674C225.418 345.674 224.981 346.112 224.981 346.652C224.981 347.192 225.418 347.63 225.959 347.63Z" fill="#F55F44"/>
<path opacity="0.1" d="M245.856 344.048C247.84 344.048 249.449 342.44 249.449 340.456C249.449 338.473 247.84 336.865 245.856 336.865C243.873 336.865 242.264 338.473 242.264 340.456C242.264 342.44 243.873 344.048 245.856 344.048Z" fill="#F55F44"/>
<path opacity="0.1" d="M252.053 328.159C252.042 329.096 251.761 330.009 251.245 330.791C250.729 331.572 249.999 332.189 249.142 332.568C248.285 332.947 247.338 333.072 246.412 332.928C245.487 332.784 244.622 332.377 243.921 331.756C243.22 331.135 242.712 330.325 242.458 329.424C242.203 328.522 242.214 327.567 242.487 326.671C242.76 325.775 243.285 324.977 243.999 324.371C244.713 323.764 245.586 323.376 246.515 323.252C248.668 324.505 250.551 326.173 252.053 328.159Z" fill="#F55F44"/>
<path opacity="0.1" d="M252.42 350.027C250.822 352.303 248.732 354.191 246.305 355.55C243.877 356.908 241.176 357.704 238.399 357.877C238.399 357.624 238.399 357.36 238.399 357.097C238.394 355.458 238.846 353.85 239.705 352.454C240.564 351.057 241.796 349.929 243.262 349.194C244.727 348.459 246.369 348.148 248.002 348.295C249.635 348.442 251.194 349.042 252.505 350.027H252.42Z" fill="#F55F44"/>
<g opacity="0.1">
<path opacity="0.1" d="M464.151 189.957H367.294V193.718H464.151V189.957Z" fill="black"/>
</g>
<defs>
<linearGradient id="paint0_linear" x1="416.71" y1="652.511" x2="416.71" y2="45.1741" gradientUnits="userSpaceOnUse">
<stop stop-color="#808080" stop-opacity="0.25"/>
<stop offset="0.54" stop-color="#808080" stop-opacity="0.12"/>
<stop offset="1" stop-color="#808080" stop-opacity="0.1"/>
</linearGradient>
<linearGradient id="paint1_linear" x1="325.27" y1="580.26" x2="325.27" y2="639.142" gradientUnits="userSpaceOnUse">
<stop stop-color="#E0E0E0"/>
<stop offset="0.31" stop-color="#FCCC63"/>
<stop offset="0.77" stop-color="#F55F44"/>
</linearGradient>
<linearGradient id="paint2_linear" x1="9515.74" y1="36916.2" x2="9515.74" y2="40603.3" gradientUnits="userSpaceOnUse">
<stop stop-color="#E0E0E0"/>
<stop offset="0.31" stop-color="#FCCC63"/>
<stop offset="0.77" stop-color="#F55F44"/>
</linearGradient>
<linearGradient id="paint3_linear" x1="10578.9" y1="36916.2" x2="10578.9" y2="40603.3" gradientUnits="userSpaceOnUse">
<stop stop-color="#E0E0E0"/>
<stop offset="0.31" stop-color="#FCCC63"/>
<stop offset="0.77" stop-color="#F55F44"/>
</linearGradient>
<linearGradient id="paint4_linear" x1="12294.8" y1="36916.2" x2="12294.8" y2="40603.3" gradientUnits="userSpaceOnUse">
<stop stop-color="#E0E0E0"/>
<stop offset="0.31" stop-color="#FCCC63"/>
<stop offset="0.77" stop-color="#F55F44"/>
</linearGradient>
<linearGradient id="paint5_linear" x1="335356" y1="147535" x2="335356" y2="114573" gradientUnits="userSpaceOnUse">
<stop stop-color="#808080" stop-opacity="0.25"/>
<stop offset="0.54" stop-color="#808080" stop-opacity="0.12"/>
<stop offset="1" stop-color="#808080" stop-opacity="0.1"/>
</linearGradient>
<linearGradient id="paint6_linear" x1="256.445" y1="551.417" x2="256.445" y2="688.359" gradientUnits="userSpaceOnUse">
<stop stop-color="#F2F2F2"/>
<stop offset="0.31" stop-color="#E6E6E6"/>
<stop offset="0.77" stop-color="#CCCCCC"/>
</linearGradient>
<linearGradient id="paint7_linear" x1="41030.1" y1="91579.1" x2="41030.1" y2="115497" gradientUnits="userSpaceOnUse">
<stop stop-color="#F2F2F2"/>
<stop offset="0.31" stop-color="#E6E6E6"/>
<stop offset="0.77" stop-color="#CCCCCC"/>
</linearGradient>
<linearGradient id="paint8_linear" x1="89945.7" y1="91579.1" x2="89945.7" y2="115497" gradientUnits="userSpaceOnUse">
<stop stop-color="#F2F2F2"/>
<stop offset="0.31" stop-color="#E6E6E6"/>
<stop offset="0.77" stop-color="#CCCCCC"/>
</linearGradient>
<linearGradient id="paint9_linear" x1="81636.6" y1="85590.5" x2="81636.6" y2="105537" gradientUnits="userSpaceOnUse">
<stop stop-color="#F2F2F2"/>
<stop offset="0.31" stop-color="#E6E6E6"/>
<stop offset="0.77" stop-color="#CCCCCC"/>
</linearGradient>
<linearGradient id="paint10_linear" x1="79101.4" y1="87350.6" x2="79101.4" y2="103700" gradientUnits="userSpaceOnUse">
<stop stop-color="#F2F2F2"/>
<stop offset="0.31" stop-color="#E6E6E6"/>
<stop offset="0.77" stop-color="#CCCCCC"/>
</linearGradient>
<linearGradient id="paint11_linear" x1="91524.7" y1="56758.4" x2="91524.7" y2="62682.5" gradientUnits="userSpaceOnUse">
<stop stop-color="#F2F2F2"/>
<stop offset="0.31" stop-color="#E6E6E6"/>
<stop offset="0.77" stop-color="#CCCCCC"/>
</linearGradient>
<linearGradient id="paint12_linear" x1="110480" y1="65758.6" x2="110480" y2="74056.9" gradientUnits="userSpaceOnUse">
<stop stop-color="#F2F2F2"/>
<stop offset="0.31" stop-color="#E6E6E6"/>
<stop offset="0.77" stop-color="#CCCCCC"/>
</linearGradient>
<linearGradient id="paint13_linear" x1="49235.5" y1="65796.5" x2="49235.5" y2="74099.7" gradientUnits="userSpaceOnUse">
<stop stop-color="#F2F2F2"/>
<stop offset="0.31" stop-color="#E6E6E6"/>
<stop offset="0.77" stop-color="#CCCCCC"/>
</linearGradient>
<linearGradient id="paint14_linear" x1="18506" y1="16044.8" x2="18506" y2="15373.6" gradientUnits="userSpaceOnUse">
<stop stop-color="#808080" stop-opacity="0.25"/>
<stop offset="0.54" stop-color="#808080" stop-opacity="0.12"/>
<stop offset="1" stop-color="#808080" stop-opacity="0.1"/>
</linearGradient>
<linearGradient id="paint15_linear" x1="17197.5" y1="14310.3" x2="17197.5" y2="14886.7" gradientUnits="userSpaceOnUse">
<stop stop-color="#F2F2F2"/>
<stop offset="0.31" stop-color="#E6E6E6"/>
<stop offset="0.77" stop-color="#CCCCCC"/>
</linearGradient>
<linearGradient id="paint16_linear" x1="21855.6" y1="21132.6" x2="21855.6" y2="20334.6" gradientUnits="userSpaceOnUse">
<stop stop-color="#808080" stop-opacity="0.25"/>
<stop offset="0.54" stop-color="#808080" stop-opacity="0.12"/>
<stop offset="1" stop-color="#808080" stop-opacity="0.1"/>
</linearGradient>
<linearGradient id="paint17_linear" x1="725.589" y1="675.347" x2="725.589" y2="701.37" gradientUnits="userSpaceOnUse">
<stop stop-color="#F2F2F2"/>
<stop offset="0.31" stop-color="#E0E0E0"/>
<stop offset="0.77" stop-color="#B3B3B3"/>
</linearGradient>
<linearGradient id="paint18_linear" x1="4585.71" y1="20619" x2="4585.71" y2="19655.1" gradientUnits="userSpaceOnUse">
<stop stop-color="#808080" stop-opacity="0.25"/>
<stop offset="0.54" stop-color="#808080" stop-opacity="0.12"/>
<stop offset="1" stop-color="#808080" stop-opacity="0.1"/>
</linearGradient>
<linearGradient id="paint19_linear" x1="4385.75" y1="18819.3" x2="4385.75" y2="19698.7" gradientUnits="userSpaceOnUse">
<stop stop-color="#F2F2F2"/>
<stop offset="0.31" stop-color="#E6E6E6"/>
<stop offset="0.77" stop-color="#CCCCCC"/>
</linearGradient>
<linearGradient id="paint20_linear" x1="71057" y1="12617.8" x2="71057" y2="5363.79" gradientUnits="userSpaceOnUse">
<stop stop-color="#808080" stop-opacity="0.25"/>
<stop offset="0.54" stop-color="#808080" stop-opacity="0.12"/>
<stop offset="1" stop-color="#808080" stop-opacity="0.1"/>
</linearGradient>
<linearGradient id="paint21_linear" x1="20796.9" y1="19368.9" x2="20796.9" y2="20089.3" gradientUnits="userSpaceOnUse">
<stop stop-color="#F2F2F2"/>
<stop offset="0.31" stop-color="#E6E6E6"/>
<stop offset="0.77" stop-color="#CCCCCC"/>
</linearGradient>
<linearGradient id="paint22_linear" x1="15566.7" y1="17894.5" x2="15566.7" y2="16248.7" gradientUnits="userSpaceOnUse">
<stop stop-color="#808080" stop-opacity="0.25"/>
<stop offset="0.54" stop-color="#808080" stop-opacity="0.12"/>
<stop offset="1" stop-color="#808080" stop-opacity="0.1"/>
</linearGradient>
</defs>
</svg>
