<svg id="Layer_1" data-name="Layer 1" xmlns="http://www.w3.org/2000/svg" viewBox="0 0 64 64"><defs><style>.cls-1{fill:none;stroke:#000;stroke-linecap:round;stroke-linejoin:round;}</style></defs><title>1 Sattelite</title><path class="cls-1" d="M20.62,8.62a26,26,0,0,1,24.06.69"/><path class="cls-1" d="M15.56,52.14a26,26,0,0,0,30.79,1.54"/><path class="cls-1" d="M10.32,17.65a26,26,0,0,0,1.54,30.79"/><path class="cls-1" d="M54.69,19.32a26,26,0,0,1,.69,24.07"/><path class="cls-1" d="M58.73,17.09A8.36,8.36,0,0,1,46.91,5.27Z"/><rect class="cls-1" x="44.21" y="16.51" width="2.62" height="3.93" transform="translate(26.4 -26.78) rotate(45)"/><path class="cls-1" d="M38.82,19.29h7.85A1.31,1.31,0,0,1,48,20.6v2.62a0,0,0,0,1,0,0H37.51a0,0,0,0,1,0,0V20.6A1.31,1.31,0,0,1,38.82,19.29Z" transform="translate(27.55 -24) rotate(45)"/><path class="cls-1" d="M15.76,37.77H26.23a0,0,0,0,1,0,0v9.16a1.31,1.31,0,0,1-1.31,1.31H17.07a1.31,1.31,0,0,1-1.31-1.31V37.77a0,0,0,0,1,0,0Z" transform="translate(36.56 -2.25) rotate(45)"/><rect class="cls-1" x="23.86" y="19.19" width="18.33" height="23.56" rx="1.31" transform="translate(31.57 -14.28) rotate(45)"/><rect class="cls-1" x="29.1" y="27.05" width="7.85" height="7.85" transform="translate(31.57 -14.28) rotate(45)"/><circle class="cls-1" cx="56.36" cy="7.64" r="1.67"/><line class="cls-1" x1="55.18" y1="8.82" x2="52.82" y2="11.18"/><rect class="cls-1" x="12.82" y="45.94" width="5.24" height="5.24" transform="translate(38.86 3.3) rotate(45)"/><path class="cls-1" d="M15.44,52.26a2.62,2.62,0,0,1-3.7-3.7Z"/><polygon class="cls-1" points="41.25 51.13 37.96 44.55 47.84 34.68 51.13 41.26 41.25 51.13"/><polygon class="cls-1" points="47.84 54.42 41.25 51.13 51.13 41.26 57.71 44.55 47.84 54.42"/><polygon class="cls-1" points="51.13 61 47.84 54.42 57.71 44.55 61 51.13 51.13 61"/><polyline class="cls-1" points="41 41.51 44.29 48.09 50.87 51.38 54.16 57.97"/><polyline class="cls-1" points="44.21 38.3 47.51 44.88 54.09 48.17 57.38 54.75"/><line class="cls-1" x1="42.28" y1="40.23" x2="39.51" y2="37.45"/><polygon class="cls-1" points="12.87 22.74 19.45 26.03 29.33 16.16 22.75 12.87 12.87 22.74"/><polygon class="cls-1" points="9.58 16.16 12.87 22.74 22.75 12.87 19.45 6.29 9.58 16.16"/><polygon class="cls-1" points="3 12.87 9.58 16.16 19.45 6.29 12.87 3 3 12.87"/><polyline class="cls-1" points="22.49 23 15.91 19.71 12.62 13.12 6.04 9.83"/><polyline class="cls-1" points="25.71 19.78 19.12 16.49 15.83 9.91 9.25 6.62"/><line class="cls-1" x1="23.77" y1="21.71" x2="26.55" y2="24.49"/><circle class="cls-1" cx="7.97" cy="56.03" r="1.97"/><line class="cls-1" x1="9.42" y1="54.63" x2="11.77" y2="52.29"/></svg>