<svg width="88" height="88" viewBox="0 0 88 88" fill="none" xmlns="http://www.w3.org/2000/svg">
<g clip-path="url(#clip0)">
<path d="M87.8737 33.9036C87.5705 32.9701 86.7639 32.2899 85.7928 32.1489L58.5124 28.1847L46.3119 3.46448C45.8777 2.58449 44.9814 2.02744 44.0002 2.02744C43.0188 2.02744 42.1226 2.58449 41.6883 3.46448L29.4873 28.1847L2.20739 32.1489C1.23647 32.2899 0.429522 32.9701 0.126335 33.9034C-0.177023 34.8369 0.0759763 35.8614 0.77877 36.5463L20.5182 55.7884L15.859 82.9588C15.693 83.9261 16.0907 84.9034 16.8846 85.4803C17.3337 85.8066 17.8657 85.9726 18.4002 85.9726C18.8106 85.9726 19.2224 85.8748 19.5995 85.6764L44 72.8481L68.3995 85.6763C69.2683 86.1329 70.3207 86.057 71.1146 85.4802C71.9084 84.9034 72.3063 83.9257 72.1405 82.9584L67.4798 55.7884L87.2214 36.5462C87.924 35.8614 88.1772 34.8369 87.8737 33.9036Z" fill="#EEEEEE"/>
</g>
<defs>
<clipPath id="clip0">
<rect width="88" height="88" fill="white"/>
</clipPath>
</defs>
</svg>
