<svg xmlns="http://www.w3.org/2000/svg" viewBox="0 0 512 512"><title>Icon</title><circle cx="256" cy="256" r="64.47" fill="#f2eff9"/><circle cx="256" cy="256" r="40.29" fill="#646296"/><path d="M390.58,396.94a6.34,6.34,0,0,0,1.86,4.5l30,30a6.36,6.36,0,0,0,9,0c96.88-96.88,96.88-254,0-350.85h0a6.36,6.36,0,0,0-9,0l-30,30a6.36,6.36,0,0,0,0,9c75.35,75.35,75.35,197.53,0,272.88A6.34,6.34,0,0,0,390.58,396.94Z" fill="#fff"/><path d="M318.61,325a6.35,6.35,0,0,0,1.86,4.5l30,30a6.36,6.36,0,0,0,9,0h0a146.31,146.31,0,0,0,0-206.91,6.36,6.36,0,0,0-9,0h0l-30,30a6.36,6.36,0,0,0,0,9h0a91.18,91.18,0,0,1,0,128.94h0a6.34,6.34,0,0,0-1.86,4.5Z" fill="#fff"/><path d="M121.42,115.06a6.34,6.34,0,0,0-1.86-4.5l-30-30a6.36,6.36,0,0,0-9,0c-96.88,96.88-96.88,254,0,350.85h0a6.36,6.36,0,0,0,9,0l30-30a6.36,6.36,0,0,0,0-9c-75.35-75.35-75.35-197.53,0-272.88A6.34,6.34,0,0,0,121.42,115.06Z" fill="#fff"/><path d="M431.42,80.58a6.36,6.36,0,0,0-9,0l-8,8c86.66,94.63,86.65,240.17,0,334.8l8,8a6.36,6.36,0,0,0,9,0C528.31,334.54,528.31,177.46,431.42,80.58Z" fill="#f2eff9"/><path d="M193.39,187a6.35,6.35,0,0,0-1.86-4.5l-30-30a6.36,6.36,0,0,0-9,0h0a146.31,146.31,0,0,0,0,206.91,6.36,6.36,0,0,0,9,0h0l30-30a6.36,6.36,0,0,0,0-9h0a91.18,91.18,0,0,1,0-128.94h0a6.34,6.34,0,0,0,1.86-4.5Z" fill="#fff"/><path d="M390.58,396.94a6.34,6.34,0,0,0,1.86,4.5l30,30a6.36,6.36,0,0,0,9,0c96.88-96.88,96.88-254,0-350.85h0a6.36,6.36,0,0,0-9,0l-30,30a6.36,6.36,0,0,0,0,9c75.35,75.35,75.35,197.53,0,272.88A6.34,6.34,0,0,0,390.58,396.94Z" fill="none" stroke="#2f2d43" stroke-linecap="round" stroke-linejoin="round" stroke-width="12"/><path d="M359.46,152.55a6.36,6.36,0,0,0-9,0h0l-6.88,6.88a146.31,146.31,0,0,1,0,193.15l6.88,6.88a6.36,6.36,0,0,0,9,0h0A146.31,146.31,0,0,0,359.46,152.55Z" fill="#f2eff9"/><path d="M318.61,325a6.35,6.35,0,0,0,1.86,4.5l30,30a6.36,6.36,0,0,0,9,0h0a146.31,146.31,0,0,0,0-206.91,6.36,6.36,0,0,0-9,0h0l-30,30a6.36,6.36,0,0,0,0,9h0a91.18,91.18,0,0,1,0,128.94h0a6.34,6.34,0,0,0-1.86,4.5Z" fill="none" stroke="#2f2d43" stroke-linecap="round" stroke-linejoin="round" stroke-width="12"/><path d="M121.42,115.06a6.34,6.34,0,0,0-1.86-4.5l-30-30a6.36,6.36,0,0,0-9,0c-96.88,96.88-96.88,254,0,350.85h0a6.36,6.36,0,0,0,9,0l30-30a6.36,6.36,0,0,0,0-9c-75.35-75.35-75.35-197.53,0-272.88A6.34,6.34,0,0,0,121.42,115.06Z" fill="none" stroke="#2f2d43" stroke-linecap="round" stroke-linejoin="round" stroke-width="12"/><path d="M193.39,187a6.35,6.35,0,0,0-1.86-4.5l-30-30a6.36,6.36,0,0,0-9,0h0a146.31,146.31,0,0,0,0,206.91,6.36,6.36,0,0,0,9,0h0l30-30a6.36,6.36,0,0,0,0-9h0a91.18,91.18,0,0,1,0-128.94h0a6.34,6.34,0,0,0,1.86-4.5Z" fill="none" stroke="#2f2d43" stroke-linecap="round" stroke-linejoin="round" stroke-width="12"/><circle cx="256" cy="256" r="17.19" fill="#403c58"/></svg>