<svg id="Layer_1" data-name="Layer 1" xmlns="http://www.w3.org/2000/svg" viewBox="0 0 64 64"><defs><style>.cls-1{fill:none;stroke:#000;stroke-linecap:round;stroke-linejoin:round;}</style></defs><title>5 Telescope</title><path class="cls-1" d="M6,33.39A26,26,0,0,0,17.83,53.8"/><path class="cls-1" d="M57.93,30.19c0,.6.07,1.2.07,1.81A26,26,0,0,1,46.36,53.68"/><path class="cls-1" d="M43.6,55.27a25.68,25.68,0,0,1-9.81,2.67"/><path class="cls-1" d="M30.21,57.94a25.83,25.83,0,0,1-9.61-2.56"/><path class="cls-1" d="M6.58,26.56h0A26,26,0,0,1,43.87,8.87"/><polygon class="cls-1" points="50.74 28.94 28.48 33.09 23.85 16.18 45.12 8.41 50.74 28.94"/><polygon class="cls-1" points="28.1 31.67 12.84 34.52 9.66 22.92 24.24 17.59 28.1 31.67"/><polygon class="cls-1" points="12.21 32.24 4.58 33.66 3 27.87 10.29 25.2 12.21 32.24"/><rect class="cls-1" x="47.74" y="3.5" width="7.51" height="27.95" transform="translate(-2.79 14.22) rotate(-15.32)"/><path class="cls-1" d="M52.34,6.51a12.15,12.15,0,0,1,5.48,19.84"/><path class="cls-1" d="M25.15,32.22v6.11a1.41,1.41,0,0,0,1.41,1.4H37.74a1.41,1.41,0,0,0,1.41-1.4V31.1"/><path class="cls-1" d="M27.05,39.73v4.66a1,1,0,0,0,1,1h8.16a1,1,0,0,0,1-1V39.73"/><path class="cls-1" d="M30.21,45.41h3.57a0,0,0,0,1,0,0v13.8A1.79,1.79,0,0,1,32,61h0a1.79,1.79,0,0,1-1.79-1.79V45.41A0,0,0,0,1,30.21,45.41Z"/><path class="cls-1" d="M30.21,45.77,20.6,55.38l-5.19,5.19a1.54,1.54,0,1,1-2.17-2.18l4.59-4.59,9.24-9.24"/><path class="cls-1" d="M33.84,45.41l-.05.05,9.81,9.81,5.29,5.3a1.54,1.54,0,1,0,2.18-2.18l-4.71-4.71-9.13-9.13"/></svg>